<svg xmlns="http://www.w3.org/2000/svg" xmlns:xlink="http://www.w3.org/1999/xlink" viewBox="0 0 99 39"><g transform="translate(0.627 0.629)"><path d="M 0 0 L 97.747 0 L 97.747 37.742 L 0 37.742 Z" fill="transparent"></path><path d="M 23.202 0 C 19.385 0 15.723 1.522 13.024 4.232 L 4.216 13.076 C 1.517 15.785 0.001 19.459 0 23.291 C 0 31.274 6.444 37.742 14.393 37.742 C 18.21 37.742 21.871 36.22 24.571 33.51 L 30.664 27.393 L 48.417 9.57 C 50.107 7.872 52.555 7.178 54.88 7.737 C 57.205 8.295 59.074 10.027 59.815 12.309 L 65.418 6.684 C 62.776 2.519 58.197 -0.002 53.278 0 C 49.461 0 45.799 1.522 43.1 4.232 L 19.254 28.173 C 16.569 30.868 12.217 30.868 9.532 28.172 C 6.848 25.477 6.848 21.108 9.533 18.413 L 18.341 9.569 C 20.031 7.871 22.479 7.177 24.804 7.736 C 27.129 8.295 28.998 10.027 29.739 12.309 L 35.342 6.685 C 32.7 2.52 28.121 -0.002 23.202 0 Z" fill="rgb(255,255,255)"></path><path d="M 49.33 28.172 C 47.64 29.87 45.193 30.564 42.868 30.006 C 40.542 29.447 38.673 27.716 37.932 25.434 L 32.33 31.058 C 34.972 35.223 39.55 37.744 44.469 37.742 C 48.286 37.742 51.947 36.22 54.647 33.51 L 78.493 9.569 C 81.178 6.874 85.53 6.874 88.215 9.569 C 90.899 12.265 90.899 16.634 88.214 19.329 L 79.406 28.173 C 77.715 29.871 75.268 30.565 72.943 30.006 C 70.617 29.447 68.749 27.715 68.008 25.433 L 62.405 31.058 C 65.047 35.223 69.626 37.745 74.544 37.742 C 78.362 37.742 82.023 36.22 84.723 33.51 L 93.531 24.666 C 96.23 21.956 97.746 18.282 97.747 14.45 C 97.747 6.468 91.303 0 83.354 0 C 79.537 0 75.875 1.522 73.176 4.232 L 49.33 28.173 Z" fill="rgb(255,255,255)"></path></g></svg>