<svg xmlns="http://www.w3.org/2000/svg" xmlns:xlink="http://www.w3.org/1999/xlink" viewBox="0 0 133 32"><g transform="translate(0.391 0.39)"><path d="M 0 0 L 132.218 0 L 132.218 31.22 L 0 31.22 Z" fill="transparent"></path><path d="M 7.835 1.951 L 7.835 31.22 L 0 31.22 L 0 1.951 Z M 11.753 1.951 L 28.403 1.951 C 33.811 1.951 38.196 6.319 38.196 11.707 C 38.196 17.096 33.811 21.463 28.403 21.463 L 19.588 21.463 L 19.588 31.22 L 11.753 31.22 Z M 19.588 13.659 L 28.403 13.659 C 29.483 13.659 30.36 12.786 30.361 11.707 C 30.361 10.63 29.485 9.756 28.403 9.756 L 19.588 9.756 Z M 67.578 1.951 L 67.578 17.073 C 67.578 20.575 70.428 23.415 73.944 23.415 C 77.46 23.415 80.31 20.575 80.31 17.073 L 80.31 1.951 L 88.145 1.951 L 88.145 17.073 C 88.145 24.886 81.787 31.22 73.944 31.22 C 66.101 31.22 59.743 24.886 59.743 17.073 L 59.743 1.951 Z" fill="rgb(255,255,255)"></path><path d="M 41.135 15.61 C 41.135 8.066 47.273 1.951 54.846 1.951 L 56.804 1.951 L 56.804 9.756 L 54.846 9.756 C 51.6 9.756 48.97 12.377 48.97 15.61 L 48.97 16.585 C 48.97 24.667 42.392 31.22 34.279 31.22 L 33.299 31.22 L 33.299 23.415 L 34.279 23.415 C 38.065 23.415 41.135 20.357 41.135 16.585 Z" fill="rgb(255,255,255)"></path><path d="M 132.218 2.927 C 132.217 3.704 131.907 4.448 131.356 4.997 C 130.805 5.546 130.058 5.854 129.279 5.854 C 128.5 5.854 127.753 5.546 127.203 4.997 C 126.652 4.448 126.342 3.704 126.341 2.927 C 126.342 2.15 126.652 1.405 127.203 0.856 C 127.753 0.307 128.5 -0.001 129.279 0 C 130.058 -0.001 130.805 0.307 131.356 0.856 C 131.907 1.405 132.217 2.15 132.218 2.927 Z M 96.558 31.22 L 100.297 15.624 L 103.077 25.006 C 104.734 30.602 112.691 30.602 114.349 25.006 L 117.128 15.625 L 120.866 31.22 L 128.922 31.22 L 123.043 6.697 C 121.645 0.864 113.395 0.648 111.691 6.399 L 108.713 16.455 L 105.733 6.4 C 104.03 0.649 95.78 0.865 94.381 6.697 L 88.503 31.22 Z" fill="rgb(255,255,255)"></path></g></svg>