<svg xmlns="http://www.w3.org/2000/svg" xmlns:xlink="http://www.w3.org/1999/xlink" viewBox="0 0 171 42"><g transform="translate(0.5 0.5)"><path d="M 0 0 L 170 0 L 170 41 L 0 41 Z" fill="transparent"></path><path d="M 51.278 29.323 L 63.23 29.323 L 63.23 25.723 L 55.526 25.723 L 55.526 12.163 L 51.278 12.163 Z M 70.31 26.923 C 68.607 26.923 67.719 25.435 67.719 23.203 C 67.719 20.971 68.607 19.459 70.311 19.459 C 72.015 19.459 72.927 20.971 72.927 23.203 C 72.927 25.435 72.015 26.923 70.311 26.923 Z M 70.335 29.707 C 74.295 29.707 76.887 26.899 76.887 23.203 C 76.887 19.507 74.295 16.699 70.335 16.699 C 66.399 16.699 63.759 19.507 63.759 23.203 C 63.759 26.899 66.399 29.707 70.335 29.707 Z M 83.741 33.571 C 85.565 33.571 87.173 33.163 88.253 32.203 C 89.237 31.315 89.885 29.971 89.885 28.123 L 89.885 17.035 L 86.141 17.035 L 86.141 18.355 L 86.093 18.355 C 85.373 17.323 84.269 16.675 82.637 16.675 C 79.589 16.675 77.477 19.219 77.477 22.819 C 77.477 26.587 80.045 28.651 82.805 28.651 C 84.293 28.651 85.229 28.051 85.949 27.235 L 86.045 27.235 L 86.045 28.459 C 86.045 29.947 85.349 30.811 83.693 30.811 C 82.397 30.811 81.749 30.259 81.533 29.611 L 77.741 29.611 C 78.125 32.179 80.357 33.571 83.741 33.571 Z M 83.717 25.747 C 82.253 25.747 81.293 24.547 81.293 22.699 C 81.293 20.827 82.253 19.627 83.717 19.627 C 85.349 19.627 86.213 21.019 86.213 22.675 C 86.213 24.403 85.421 25.747 83.717 25.747 Z M 97.583 26.923 C 95.879 26.923 94.991 25.435 94.991 23.203 C 94.991 20.971 95.879 19.459 97.583 19.459 C 99.287 19.459 100.199 20.971 100.199 23.203 C 100.199 25.435 99.287 26.923 97.583 26.923 Z M 97.607 29.707 C 101.567 29.707 104.159 26.899 104.159 23.203 C 104.159 19.507 101.567 16.699 97.607 16.699 C 93.671 16.699 91.031 19.507 91.031 23.203 C 91.031 26.899 93.671 29.707 97.607 29.707 Z M 105.302 29.323 L 109.214 29.323 L 109.214 17.035 L 105.302 17.035 Z M 105.302 15.331 L 109.214 15.331 L 109.214 12.163 L 105.302 12.163 Z M 110.911 33.38 L 114.823 33.38 L 114.823 28.05 L 114.871 28.05 C 115.639 29.082 116.767 29.706 118.351 29.706 C 121.567 29.706 123.703 27.162 123.703 23.178 C 123.703 19.482 121.711 16.674 118.447 16.674 C 116.767 16.674 115.567 17.418 114.727 18.522 L 114.655 18.522 L 114.655 17.034 L 110.911 17.034 Z M 117.343 26.683 C 115.663 26.683 114.703 25.315 114.703 23.323 C 114.703 21.331 115.567 19.819 117.271 19.819 C 118.951 19.819 119.743 21.211 119.743 23.323 C 119.743 25.411 118.831 26.683 117.343 26.683 Z M 130.072 29.707 C 133.288 29.707 135.664 28.315 135.664 25.627 C 135.664 22.483 133.12 21.931 130.96 21.571 C 129.4 21.283 128.008 21.163 128.008 20.299 C 128.008 19.531 128.752 19.171 129.712 19.171 C 130.792 19.171 131.536 19.507 131.68 20.611 L 135.28 20.611 C 135.088 18.187 133.216 16.675 129.736 16.675 C 126.832 16.675 124.432 18.019 124.432 20.611 C 124.432 23.491 126.712 24.067 128.848 24.427 C 130.48 24.715 131.968 24.835 131.968 25.939 C 131.968 26.731 131.224 27.163 130.048 27.163 C 128.752 27.163 127.936 26.563 127.792 25.339 L 124.096 25.339 C 124.216 28.051 126.472 29.707 130.072 29.707 Z M 140.978 29.683 C 142.682 29.683 143.762 29.011 144.65 27.811 L 144.722 27.811 L 144.722 29.323 L 148.466 29.323 L 148.466 17.035 L 144.554 17.035 L 144.554 23.9 C 144.554 25.364 143.738 26.372 142.394 26.372 C 141.146 26.372 140.546 25.628 140.546 24.284 L 140.546 17.036 L 136.658 17.036 L 136.658 25.1 C 136.658 27.836 138.146 29.684 140.978 29.684 Z M 150.168 29.323 L 154.08 29.323 L 154.08 22.435 C 154.08 20.971 154.8 19.939 156.024 19.939 C 157.2 19.939 157.752 20.707 157.752 22.027 L 157.752 29.323 L 161.664 29.323 L 161.664 22.435 C 161.664 20.971 162.36 19.939 163.608 19.939 C 164.784 19.939 165.336 20.707 165.336 22.027 L 165.336 29.323 L 169.248 29.323 L 169.248 21.331 C 169.248 18.571 167.856 16.675 165.072 16.675 C 163.488 16.675 162.168 17.347 161.208 18.835 L 161.16 18.835 C 160.536 17.515 159.312 16.675 157.704 16.675 C 155.928 16.675 154.752 17.515 153.984 18.787 L 153.912 18.787 L 153.912 17.035 L 150.168 17.035 Z" fill="rgb(255,255,255)"></path><path d="M 0.101 20.323 C 0.101 9.278 9.056 0.323 20.101 0.323 C 31.147 0.323 40.101 9.278 40.101 20.323 C 40.101 31.369 31.147 40.323 20.101 40.323 C 9.056 40.323 0.101 31.369 0.101 20.323 Z M 23.188 15.776 C 24.437 14.527 24.811 12.649 24.135 11.018 C 23.46 9.386 21.868 8.322 20.101 8.322 C 18.335 8.322 16.743 9.386 16.068 11.018 C 15.392 12.649 15.766 14.527 17.015 15.776 L 20.101 18.863 Z M 24.648 23.41 C 25.897 24.659 27.775 25.032 29.406 24.357 C 31.038 23.681 32.101 22.089 32.101 20.323 C 32.101 18.557 31.038 16.965 29.406 16.289 C 27.775 15.614 25.897 15.987 24.648 17.236 L 21.562 20.323 L 24.649 23.41 Z M 23.188 31.045 C 24.893 29.34 24.893 26.576 23.188 24.871 L 20.101 21.784 L 17.015 24.871 C 15.361 26.584 15.385 29.307 17.068 30.991 C 18.752 32.675 21.475 32.699 23.188 31.045 Z M 15.554 23.41 L 18.641 20.323 L 15.554 17.236 C 13.843 15.566 11.108 15.583 9.417 17.273 C 7.727 18.964 7.71 21.699 9.38 23.41 C 11.085 25.115 13.849 25.115 15.554 23.41 Z" fill="rgb(255,255,255)"></path></g></svg>