<svg xmlns="http://www.w3.org/2000/svg" xmlns:xlink="http://www.w3.org/1999/xlink" viewBox="0 0 117 60"><path d="M 3.574 34.635 L 6.856 34.635 L 6.856 50.662 L 3.574 50.662 Z M 8.759 45.171 C 8.754 42.816 10.174 40.691 12.357 39.787 C 14.54 38.882 17.054 39.377 18.727 41.041 C 20.401 42.704 20.903 45.208 19.999 47.383 C 19.095 49.559 16.965 50.978 14.601 50.978 C 13.048 50.996 11.553 50.391 10.454 49.298 C 9.354 48.205 8.743 46.718 8.759 45.171 Z M 17.138 45.171 C 17.101 43.784 15.95 42.686 14.558 42.71 C 13.166 42.734 12.053 43.871 12.065 45.258 C 12.076 46.645 13.208 47.763 14.601 47.763 C 15.291 47.783 15.958 47.514 16.44 47.021 C 16.922 46.529 17.175 45.858 17.138 45.171 Z" fill="rgb(255,255,255)"></path><path d="M 33.635 39.68 L 33.635 50.117 C 33.635 53.811 30.735 55.368 27.803 55.368 C 25.702 55.524 23.689 54.498 22.586 52.71 L 25.408 51.087 C 25.866 52.007 26.841 52.556 27.869 52.471 C 28.539 52.583 29.223 52.378 29.72 51.917 C 30.217 51.456 30.47 50.791 30.406 50.117 L 30.406 49.104 C 29.624 50.063 28.43 50.593 27.191 50.532 C 24.098 50.532 21.591 48.034 21.591 44.953 C 21.591 41.872 24.098 39.374 27.191 39.374 C 28.429 39.318 29.621 39.847 30.407 40.801 L 30.407 39.712 L 33.635 39.678 Z M 30.407 44.953 C 30.452 43.869 29.83 42.867 28.837 42.421 C 27.844 41.975 26.679 42.175 25.893 42.926 C 25.107 43.677 24.858 44.828 25.264 45.835 C 25.67 46.842 26.649 47.502 27.738 47.503 C 28.441 47.552 29.132 47.303 29.641 46.817 C 30.149 46.332 30.428 45.654 30.407 44.953 Z M 35.526 45.171 C 35.522 42.816 36.942 40.691 39.125 39.787 C 41.307 38.882 43.822 39.377 45.495 41.041 C 47.168 42.704 47.67 45.208 46.766 47.383 C 45.863 49.559 43.732 50.978 41.368 50.978 C 39.815 50.996 38.321 50.39 37.221 49.298 C 36.122 48.205 35.511 46.718 35.526 45.171 Z M 43.906 45.171 C 43.871 43.784 42.719 42.684 41.326 42.708 C 39.933 42.731 38.819 43.869 38.831 45.256 C 38.843 46.644 39.975 47.763 41.368 47.763 C 42.055 47.777 42.716 47.505 43.193 47.013 C 43.67 46.521 43.921 45.854 43.884 45.171 Z M 48.73 36.737 C 48.73 35.642 49.621 34.754 50.721 34.754 C 51.821 34.754 52.713 35.642 52.713 36.737 C 52.713 37.833 51.821 38.721 50.721 38.721 C 49.624 38.715 48.736 37.83 48.73 36.737 Z M 49.069 39.68 L 52.351 39.68 L 52.351 50.662 L 49.069 50.662 L 49.069 39.681 Z M 66.659 45.171 C 66.738 46.637 66.228 48.074 65.24 49.164 C 64.253 50.254 62.87 50.907 61.397 50.978 C 60.158 51.037 58.956 50.547 58.115 49.638 L 58.115 55.086 L 54.834 55.086 L 54.834 39.681 L 58.115 39.681 L 58.115 40.716 C 58.956 39.807 60.158 39.316 61.397 39.375 C 62.868 39.445 64.25 40.096 65.238 41.184 C 66.225 42.272 66.737 43.707 66.659 45.172 Z M 63.377 45.171 C 63.34 43.745 62.163 42.611 60.731 42.623 C 59.298 42.635 58.14 43.789 58.128 45.215 C 58.116 46.642 59.254 47.815 60.686 47.851 C 61.411 47.897 62.12 47.629 62.632 47.115 C 63.143 46.601 63.407 45.892 63.355 45.171 L 63.378 45.171 Z M 76.876 47.371 C 76.876 49.899 74.688 50.978 72.282 50.978 C 70.315 51.152 68.44 50.117 67.545 48.363 L 70.411 46.74 C 70.651 47.557 71.43 48.096 72.282 48.036 C 73.081 48.036 73.475 47.785 73.475 47.349 C 73.475 46.14 68.005 46.784 68.005 42.991 C 68.005 40.595 70.039 39.384 72.38 39.384 C 74.139 39.331 75.789 40.232 76.689 41.738 L 73.813 43.242 C 73.553 42.654 72.97 42.274 72.326 42.272 C 71.757 42.272 71.406 42.49 71.406 42.893 C 71.45 44.146 76.876 43.307 76.876 47.371 Z M 88.952 39.68 L 88.952 50.662 L 85.671 50.662 L 85.671 49.638 C 84.896 50.562 83.725 51.06 82.52 50.978 C 80.333 50.978 78.396 49.397 78.396 46.424 L 78.396 39.68 L 81.678 39.68 L 81.678 45.945 C 81.619 46.486 81.808 47.024 82.193 47.411 C 82.577 47.797 83.115 47.991 83.658 47.939 C 84.861 47.939 85.704 47.241 85.704 45.683 L 85.704 39.68 Z M 107.92 43.928 L 107.92 50.662 L 104.64 50.662 L 104.64 44.212 C 104.64 43.123 104.105 42.403 103.054 42.403 C 102.004 42.403 101.325 43.176 101.325 44.474 L 101.325 50.662 L 98.044 50.662 L 98.044 44.212 C 98.044 43.123 97.519 42.403 96.457 42.403 C 95.397 42.403 94.74 43.176 94.74 44.474 L 94.74 50.662 L 91.459 50.662 L 91.459 39.681 L 94.74 39.681 L 94.74 40.694 C 95.437 39.784 96.548 39.288 97.694 39.375 C 98.845 39.319 99.941 39.869 100.582 40.824 C 101.326 39.827 102.532 39.28 103.776 39.375 C 106.27 39.375 107.923 41.184 107.923 43.929 Z M 110.721 39.614 C 112.075 39.614 113.171 38.521 113.171 37.173 C 113.171 35.826 112.075 34.733 110.721 34.733 C 109.368 34.733 108.271 35.826 108.271 37.173 C 108.271 38.521 109.368 39.614 110.721 39.614 Z M 40.711 26.32 C 47.049 26.32 52.187 21.204 52.187 14.892 C 52.187 8.579 47.049 3.462 40.711 3.462 C 34.375 3.462 29.237 8.579 29.237 14.892 C 29.237 21.203 34.374 26.32 40.711 26.32 Z M 66.363 26.32 C 72.701 26.32 77.839 21.204 77.839 14.892 C 77.839 8.579 72.701 3.462 66.363 3.462 C 60.027 3.462 54.888 8.579 54.888 14.892 C 54.888 21.203 60.026 26.32 66.363 26.32 Z M 26.535 3.462 L 3.596 3.462 L 3.596 26.31 L 26.535 26.31 Z" fill="rgb(255,255,255)"></path></svg>