<svg xmlns="http://www.w3.org/2000/svg" xmlns:xlink="http://www.w3.org/1999/xlink" viewBox="0 0 142 33"><g transform="translate(0.401 0.402)"><path d="M 0 0 L 141.198 0 L 141.198 32.195 L 0 32.195 Z" fill="transparent"></path><path d="M 20.859 22.537 L 20.859 30.585 L 12.034 30.585 C 5.388 30.585 0 25.18 0 18.512 L 0 0 L 8.023 0 L 8.023 18.512 C 8.023 20.735 9.819 22.537 12.034 22.537 Z M 36.102 8.049 C 32.114 8.049 28.881 11.292 28.881 15.293 C 28.881 19.293 32.114 22.537 36.102 22.537 C 40.089 22.537 43.322 19.293 43.322 15.293 C 43.322 11.292 40.089 8.049 36.102 8.049 Z M 20.859 15.293 C 20.859 6.847 27.684 0 36.102 0 C 44.52 0 51.345 6.847 51.345 15.293 C 51.345 23.738 44.52 30.585 36.102 30.585 C 27.684 30.585 20.859 23.738 20.859 15.293 Z M 122.746 8.049 C 118.758 8.049 115.525 11.292 115.525 15.293 C 115.525 19.293 118.758 22.537 122.746 22.537 C 126.733 22.537 129.966 19.293 129.966 15.293 C 129.966 11.292 126.733 8.049 122.746 8.049 Z M 107.503 15.293 C 107.503 6.847 114.328 0 122.746 0 C 131.164 0 137.989 6.847 137.989 15.293 C 137.989 23.738 131.164 30.585 122.746 30.585 C 114.328 30.585 107.503 23.738 107.503 15.293 Z M 90.655 0 C 99.073 0 105.898 6.847 105.898 15.293 L 105.898 16.308 C 105.898 18.816 105.283 21.286 104.108 23.499 L 99.48 32.195 L 95.191 29.896 C 93.759 30.344 92.235 30.585 90.655 30.585 L 68.192 30.585 C 59.774 30.585 52.949 23.738 52.949 15.293 C 52.949 6.847 59.774 0 68.192 0 Z M 97.876 15.293 C 97.876 11.292 94.643 8.049 90.655 8.049 L 68.192 8.049 C 64.204 8.049 60.972 11.292 60.972 15.293 C 60.972 19.293 64.204 22.537 68.192 22.537 L 90.655 22.537 C 94.622 22.538 97.846 19.328 97.876 15.349 Z" fill="rgb(255,255,255)"></path><path d="M 141.198 2.012 C 141.219 2.744 140.841 3.43 140.212 3.802 C 139.584 4.175 138.803 4.175 138.174 3.803 C 137.545 3.431 137.168 2.745 137.188 2.013 C 137.219 0.924 138.107 0.058 139.193 0.057 C 140.278 0.057 141.167 0.923 141.198 2.012 Z" fill="rgb(255,255,255)"></path></g></svg>