<svg xmlns="http://www.w3.org/2000/svg" width="235" height="117" fill="none">
<path fill="#FCFCFA" transform="translate(10.0, 90) scale(0.043945, -0.043945)" d="M939 1387V918H902Q884 1053 837.5 1133.0Q791 1213 705.0 1260.0Q619 1307 527 1307Q423 1307 355.0 1243.5Q287 1180 287 1099Q287 1037 330 986Q392 911 625 786Q815 684 884.5 629.5Q954 575 991.5 501.0Q1029 427 1029 346Q1029 192 909.5 80.5Q790 -31 602 -31Q543 -31 491 -22Q460 -17 362.5 14.5Q265 46 239 46Q214 46 199.5 31.0Q185 16 178 -31H141V434H178Q204 288 248.0 215.5Q292 143 382.5 95.0Q473 47 581 47Q706 47 778.5 113.0Q851 179 851 269Q851 319 823.5 370.0Q796 421 738 465Q699 495 525.0 592.5Q351 690 277.5 748.0Q204 806 166.0 876.0Q128 946 128 1030Q128 1176 240.0 1281.5Q352 1387 525 1387Q633 1387 754 1334Q810 1309 833 1309Q859 1309 875.5 1324.5Q892 1340 902 1387Z"/>
<path fill="#FCFCFA" transform="translate(60.1, 90) scale(0.043945, -0.043945)" d="M335 1422V510L568 723Q642 791 654 809Q662 821 662 833Q662 853 645.5 867.5Q629 882 591 884V916H989V884Q907 882 852.5 859.0Q798 836 733 777L498 560L733 263Q831 140 865 107Q913 60 949 46Q974 36 1036 36V0H591V36Q629 37 642.5 47.5Q656 58 656 77Q656 100 616 151L335 510V206Q335 117 347.5 89.0Q360 61 383.0 49.0Q406 37 483 36V0H17V36Q87 36 122 53Q143 64 154 87Q169 120 169 201V1035Q169 1194 162.0 1229.5Q155 1265 139.0 1278.5Q123 1292 97 1292Q76 1292 34 1275L17 1310L289 1422Z"/>
<path fill="#FCFCFA" transform="translate(105.1, 90) scale(0.043945, -0.043945)" d="M297 1422Q339 1422 368.5 1392.5Q398 1363 398 1321Q398 1279 368.5 1249.0Q339 1219 297 1219Q255 1219 225.0 1249.0Q195 1279 195 1321Q195 1363 224.5 1392.5Q254 1422 297 1422ZM380 943V207Q380 121 392.5 92.5Q405 64 429.5 50.0Q454 36 519 36V0H74V36Q141 36 164.0 49.0Q187 62 200.5 92.0Q214 122 214 207V560Q214 709 205 753Q198 785 183.0 797.5Q168 810 142 810Q114 810 74 795L60 831L336 943Z"/>
<path fill="#FCFCFA" transform="translate(130.1, 90) scale(0.043945, -0.043945)" d="M379 1422V207Q379 121 391.5 93.0Q404 65 430.0 50.5Q456 36 527 36V0H78V36Q141 36 164.0 49.0Q187 62 200.0 92.0Q213 122 213 207V1039Q213 1194 206.0 1229.5Q199 1265 183.5 1278.0Q168 1291 144 1291Q118 1291 78 1275L61 1310L334 1422Z"/>
<path fill="#FCFCFA" transform="translate(155.1, 90) scale(0.043945, -0.043945)" d="M379 1422V207Q379 121 391.5 93.0Q404 65 430.0 50.5Q456 36 527 36V0H78V36Q141 36 164.0 49.0Q187 62 200.0 92.0Q213 122 213 207V1039Q213 1194 206.0 1229.5Q199 1265 183.5 1278.0Q168 1291 144 1291Q118 1291 78 1275L61 1310L334 1422Z"/>
<path fill="#FCFCFA" fill-opacity=".5" transform="translate(180.1, 90) scale(0.043945, -0.043945)" d="M12 916H439V879H418Q373 879 350.5 859.5Q328 840 328 811Q328 772 361 703L584 241L789 747Q806 788 806 828Q806 846 799 855Q791 866 774.0 872.5Q757 879 714 879V916H1012V879Q975 875 955.0 863.0Q935 851 911 818Q902 804 877 741L504 -173Q450 -306 362.5 -374.0Q275 -442 194 -442Q135 -442 97.0 -408.0Q59 -374 59 -330Q59 -288 86.5 -262.5Q114 -237 162 -237Q195 -237 252 -259Q292 -274 302 -274Q332 -274 367.5 -243.0Q403 -212 439 -123L504 36L175 727Q160 758 127 804Q102 839 86 851Q63 867 12 879Z"/>
</svg>